<svg width="48" height="48" viewBox="0 0 48 48" fill="none" xmlns="http://www.w3.org/2000/svg">
  <circle cx="24" cy="24" r="24" fill="#fff"/>
  <path d="M39.6 24.2c0-1.1-.1-2.2-.3-3.2H24v6.1h8.7c-.4 2-1.7 3.7-3.7 4.8v4h6c3.5-3.2 5.6-7.9 5.6-13.7z" fill="#4285F4"/>
  <path d="M24 40c5.1 0 9.4-1.7 12.5-4.7l-6-4c-1.7 1.1-3.8 1.8-6.5 1.8-5 0-9.2-3.4-10.7-8.1h-6.2v4.1C9.7 36.7 16.3 40 24 40z" fill="#34A853"/>
  <path d="M13.3 25c-.4-1.1-.7-2.2-.7-3.5s.3-2.4.7-3.5v-4.1h-6.2C6.2 17.7 5.5 20.7 5.5 24s.7 6.3 2.1 8.6l6.2-4.1z" fill="#FBBC05"/>
  <path d="M24 15.8c2.8 0 5.2.9 7.1 2.7l5.3-5.3C33.4 10.7 29.1 8.7 24 8.7c-7.7 0-14.3 3.3-18.3 8.6l6.2 4.1c1.5-4.7 5.7-8.1 10.7-8.1z" fill="#EA4335"/>
</svg>
