<svg width="48" height="48" viewBox="0 0 48 48" fill="none" xmlns="http://www.w3.org/2000/svg">
  <circle cx="24" cy="24" r="24" fill="#1ED760"/>
  <path d="M34.5 32.2c-.3.5-.9.7-1.4.4-3.8-2.3-8.6-2.8-14.2-1.5-.6.1-1.2-.2-1.3-.8-.1-.6.2-1.2.8-1.3 6.1-1.4 11.3-.8 15.4 1.7.5.3.7.9.4 1.5zm1.7-4c-.4.6-1.1.8-1.7.5-4.3-2.6-10.8-3.3-15.8-1.8-.7.2-1.4-.2-1.6-.9-.2-.7.2-1.4.9-1.6 5.6-1.6 12.7-.8 17.5 2.1.6.3.8 1.1.7 1.7zm1.7-4c-.5.7-1.4.9-2.1.5-5-3-13.2-3.3-17.9-1.8-.8.2-1.6-.2-1.8-1-.2-.8.2-1.6 1-1.8 5.2-1.6 14-1.3 19.7 2.1.7.4.9 1.3.7 2z" fill="#fff"/>
</svg>
